<svg id="Слой_1" data-name="Слой 1" xmlns="http://www.w3.org/2000/svg" viewBox="0 0 117.67 143.69"><defs><style>.cls-1{fill:#ffe0b2;}.cls-2{fill:#f4b664;}.cls-3{fill:#66bb6a;}.cls-4{fill:#4fc3f7;}.cls-5{fill:none;stroke:#00838f;stroke-width:9.49px;}.cls-6{fill:#0097a7;}.cls-7{fill:#5d4037;}.cls-8{fill:#fff;}.cls-9{fill:#4e342e;}.cls-10{fill:#3e2723;}.cls-11{fill:#fbe9e7;}.cls-12{fill:#ff5722;}</style></defs><title>banner_chel</title><rect class="cls-1" x="96.67" y="113.87" width="15.06" height="29.82"/><path class="cls-2" d="M16.84,126a7.12,7.12,0,0,1-6.1-10.78L25,91.47a7.12,7.12,0,0,1,12.21,7.32L22.94,122.51A7.11,7.11,0,0,1,16.84,126Z"/><path class="cls-3" d="M112.92,113.87H97.26v29.82H30.84V113.87H15.18a4.75,4.75,0,0,1-4.15-7L25.42,80.93A19,19,0,0,1,42,71.17H86.09a19,19,0,0,1,16.59,9.76l14.39,25.89A4.75,4.75,0,0,1,112.92,113.87Z"/><path class="cls-1" d="M24,91.33v27.52a7.12,7.12,0,0,1-14.23,0V91.33a7.12,7.12,0,0,1,14.23,0Z"/><polygon class="cls-4" points="78.28 71.17 78.28 85.4 64.05 80.66 49.82 85.4 49.82 71.17 78.28 71.17"/><rect class="cls-2" x="54.56" y="61.68" width="18.98" height="18.98"/><rect class="cls-2" x="54.56" y="71.17" width="18.98" height="9.49"/><line class="cls-5" x1="64.05" y1="80.66" x2="64.05" y2="99.63"/><path class="cls-6" d="M73.54,66.42l3.35,2.46a3.09,3.09,0,0,1,1.39,2.46v5.52l-4.74-3.48Z"/><path class="cls-6" d="M54.56,66.42l-3.35,2.46a3.09,3.09,0,0,0-1.39,2.46v5.52l4.74-3.48Z"/><path class="cls-6" d="M64,80.66,49.82,85.4V71.17l4.74-4.74v4.74A9.49,9.49,0,0,0,64,80.66Z"/><path class="cls-6" d="M78.28,71.17V85.4L64,80.66a9.49,9.49,0,0,0,9.49-9.49V66.42Z"/><path class="cls-1" d="M87.77,33.21V23.72A14.23,14.23,0,0,0,73.54,9.49h-19A14.23,14.23,0,0,0,40.33,23.72v9.49a4.74,4.74,0,1,0,0,9.49,23.72,23.72,0,0,0,47.44,0h0a4.74,4.74,0,0,0,0-9.49Z"/><circle class="cls-7" cx="75.91" cy="35.59" r="2.37"/><circle class="cls-7" cx="52.19" cy="35.59" r="2.37"/><path class="cls-8" d="M73.54,47.45a9.49,9.49,0,1,1-19,0Z"/><path class="cls-2" d="M40.33,35.59v4.74a2.37,2.37,0,0,1,0-4.74Z"/><path class="cls-2" d="M90.14,38a2.37,2.37,0,0,1-2.37,2.37V35.59A2.37,2.37,0,0,1,90.14,38Z"/><path class="cls-9" d="M83,12.24v7.28A7.55,7.55,0,0,0,84.42,24l3.35,4.47V38l2.37-4.11V12.24Z"/><path class="cls-10" d="M39.67,12.69l-.61.47a4.75,4.75,0,0,0-1.1,3V33.85L40.33,38V28.47L43.68,24a7.55,7.55,0,0,0,1.39-4.48V12.69Z"/><path class="cls-7" d="M90.14,7.28v7H42.86A7.3,7.3,0,0,1,35.58,7V0H82.87A7.28,7.28,0,0,1,90.14,7.28Z"/><rect class="cls-11" x="9.96" y="55.04" width="12.81" height="38.43"/><path class="cls-12" d="M20.74,52.19a6.75,6.75,0,0,1,4.81,1.93,6.34,6.34,0,0,1,2,4.73V88.23a6.34,6.34,0,0,1-2,4.73,6.75,6.75,0,0,1-4.81,1.93H11.67A6.53,6.53,0,0,1,6.92,93a6.2,6.2,0,0,1-2-4.73V58.85a6.2,6.2,0,0,1,2-4.73,6.53,6.53,0,0,1,4.75-1.93Zm-.55,6.93a.71.71,0,0,0,.71-.7V57.29a.76.76,0,0,0-.77-.75H12.27a.71.71,0,0,0-.71.7v1.18a.7.7,0,0,0,.71.7ZM13.53,88.73a2.7,2.7,0,1,0,2.64-2.59A2.68,2.68,0,0,0,13.53,88.73Z"/><path class="cls-1" d="M6.64,81.61a2.37,2.37,0,0,0-1.9-2.32v0H1.9v0a2.37,2.37,0,0,0,0,4.65v0H4.74v0A2.37,2.37,0,0,0,6.64,81.61Z"/><path class="cls-1" d="M6.64,75.44a2.37,2.37,0,0,0-1.9-2.32v0H1.9v0a2.37,2.37,0,0,0,0,4.65v0H4.74v0A2.37,2.37,0,0,0,6.64,75.44Z"/><path class="cls-1" d="M6.64,69.27a2.37,2.37,0,0,0-1.9-2.32v0H1.9v0a2.37,2.37,0,0,0,0,4.65v0H4.74v0A2.37,2.37,0,0,0,6.64,69.27Z"/><path class="cls-1" d="M6.64,63.1a2.37,2.37,0,0,0-1.9-2.32v0H1.9v0a2.37,2.37,0,0,0,0,4.65v0H4.74v0A2.37,2.37,0,0,0,6.64,63.1Z"/><path class="cls-1" d="M30.36,65.49H28a2.37,2.37,0,0,0-.47,4.7v7.64h2.71a2,2,0,0,0,2-2V67.51A2,2,0,0,0,30.36,65.49Z"/><path class="cls-8" d="M22.66,80.58h-7a1.46,1.46,0,0,1-1.46-1.15,1.42,1.42,0,0,1,1.39-1.68h7a1.46,1.46,0,0,1,1.46,1.15A1.42,1.42,0,0,1,22.66,80.58Zm1.39-7.34a1.46,1.46,0,0,0-1.46-1.15H18.48A1.46,1.46,0,0,0,17,73.24a1.42,1.42,0,0,0,1.39,1.68h4.25A1.42,1.42,0,0,0,24.05,73.24Zm0-5.66a1.46,1.46,0,0,0-1.46-1.15H21.32a1.46,1.46,0,0,0-1.46,1.15,1.42,1.42,0,0,0,1.39,1.68h1.42A1.42,1.42,0,0,0,24.05,67.58ZM12.73,78.9a1.46,1.46,0,0,0-1.46-1.15H10A1.46,1.46,0,0,0,8.53,78.9a1.42,1.42,0,0,0,1.39,1.68h1.42A1.42,1.42,0,0,0,12.73,78.9Zm2.83-5.66a1.46,1.46,0,0,0-1.46-1.15H10a1.46,1.46,0,0,0-1.46,1.15,1.42,1.42,0,0,0,1.39,1.68h4.25A1.42,1.42,0,0,0,15.56,73.24Zm2.83-5.66a1.46,1.46,0,0,0-1.46-1.15H10a1.46,1.46,0,0,0-1.46,1.15,1.42,1.42,0,0,0,1.39,1.68H17A1.42,1.42,0,0,0,18.39,67.58Z"/></svg>