<svg id="Слой_1" data-name="Слой 1" xmlns="http://www.w3.org/2000/svg" viewBox="0 0 300 42"><defs><style>.cls-1{fill:#f5f5f5;}.cls-2{fill:#e0e0e0;}.cls-3{fill:#ff9800;}.cls-4{fill:#fff;}.cls-5{fill:#616161;}.cls-6{fill:#ff5722;}</style></defs><title>banner_bottom</title><rect class="cls-1" y="2" width="300" height="40"/><rect class="cls-2" width="300" height="2"/><rect class="cls-3" x="24" y="8.86" width="132" height="25.92" rx="12.96" ry="12.96"/><path class="cls-4" d="M48.15,15.45c.31,0,.39.17.25.51l-4.47,9.69c-.17.38-.3.45-.84.45h-1c-.34,0-.42-.17-.25-.51L43.13,23,39.5,16c-.18-.34-.09-.51.25-.51h.89c.67,0,.71,0,1,.45l2.48,5,2.26-5c.18-.42.27-.45.92-.45Zm3.18,2.65c2.08,0,3.12.78,3.12,2.35A1.53,1.53,0,0,1,53.57,22v.08A1.79,1.79,0,0,1,54.63,24c0,1.58-1.08,2.37-3.25,2.37a3.52,3.52,0,0,1-3.53-2,.44.44,0,0,1,.33-.67l.66-.2c.38-.12.52-.06.66.3a1.83,1.83,0,0,0,1.89,1c1,0,1.46-.34,1.46-1s-.33-.89-1-.89H50.43c-.34,0-.46-.12-.46-.46v-.5c0-.36.12-.46.46-.46h1.32c.58,0,.94-.3.94-.83s-.45-1-1.37-1a1.75,1.75,0,0,0-1.71,1c-.14.36-.3.43-.66.31l-.67-.21a.46.46,0,0,1-.32-.68A3.35,3.35,0,0,1,51.33,18.1ZM62,18.33c.34,0,.45.1.45.45v6.85c0,.34-.1.46-.45.46h-.83c-.34,0-.46-.12-.46-.46V22.95H57.57v2.69c0,.34-.12.46-.47.46h-.82c-.35,0-.45-.12-.45-.46V18.78c0-.34.1-.45.45-.45h.82c.35,0,.47.1.47.45v2.55h3.13V18.78c0-.34.12-.45.46-.45Zm5.16-.23c2.14,0,3.21,1,3.21,3.09v3.88c0,.52-.12.67-.54.85a7.23,7.23,0,0,1-2.7.39,4.19,4.19,0,0,1-2.62-.6,2.23,2.23,0,0,1-.72-1.83c0-1.78,1-2.41,3.41-2.41l1.44.07v-.42c0-1-.42-1.48-1.5-1.48a1.74,1.74,0,0,0-1.57.72c-.23.32-.3.35-.65.23l-.6-.25c-.33-.15-.42-.37-.25-.67A3.17,3.17,0,0,1,67.16,18.1ZM68.63,23,67,22.9c-1.08,0-1.44.31-1.44,1s.31,1,1.41,1a7.59,7.59,0,0,0,1.5-.12c.11,0,.17-.1.17-.21Zm8.72-4.65c.35,0,.46.1.46.45v.69c0,.35-.12.47-.46.47H75.39v5.7c0,.34-.12.46-.47.46h-.81c-.34,0-.46-.12-.46-.46v-5.7h-2c-.34,0-.46-.12-.46-.47v-.69c0-.34.12-.45.46-.45Zm5.25,2.22a2.58,2.58,0,0,1,2.83,2.76,2.6,2.6,0,0,1-2.83,2.79H79.32c-.35,0-.45-.12-.45-.46V18.78c0-.34.1-.45.45-.45h.82c.35,0,.47.1.47.45v1.77Zm-.21,4a1.15,1.15,0,0,0,1.23-1.23,1.12,1.12,0,0,0-1.23-1.18H80.61v2.41Zm12.1-9.39A2.69,2.69,0,0,0,95.54,15c.31-.16.52-.06.66.3l.21.58c.11.36,0,.48-.28.66a3.77,3.77,0,0,1-1.61.24H94a2.87,2.87,0,0,0-2,.52,2.77,2.77,0,0,0-.52,1.92v.24a2.48,2.48,0,0,1,2.22-.93,2.84,2.84,0,0,1,3.09,3.06v1.69c0,1.92-1.23,3-3.46,3s-3.46-1.12-3.46-3V19.69a5.29,5.29,0,0,1,.93-3.46A4,4,0,0,1,94,15.15Zm.57,6.44q0-1.49-1.71-1.49c-1.08,0-1.67.56-1.71,1.33v1.83c0,1,.58,1.48,1.71,1.48s1.71-.52,1.71-1.48Zm3-.48c0-1.87,1.25-3,3.45-3s3.46,1.13,3.46,3v2.22c0,1.88-1.24,3-3.46,3S98,25.2,98,23.32Zm5.17,0c0-.92-.63-1.43-1.73-1.43s-1.71.51-1.71,1.43v2.22c0,.9.62,1.42,1.71,1.42s1.73-.52,1.73-1.42Zm9.33-2.77c.35,0,.47.1.47.45v6.85c0,.34-.12.46-.47.46h-.81c-.34,0-.46-.12-.46-.46v-5.7H109v1.18a7.32,7.32,0,0,1-.72,3.81,3.16,3.16,0,0,1-1.5,1.33.4.4,0,0,1-.57-.24l-.39-.78a.36.36,0,0,1,.18-.54,1.75,1.75,0,0,0,.86-.81,6.16,6.16,0,0,0,.45-2.88V18.78c0-.34.12-.45.46-.45Zm5.75,2.22a2.58,2.58,0,0,1,2.83,2.76,2.6,2.6,0,0,1-2.83,2.79H115c-.35,0-.45-.12-.45-.46V18.78c0-.34.1-.45.45-.45h.82c.35,0,.47.1.47.45v1.77Zm-.21,4a1.15,1.15,0,0,0,1.23-1.23,1.12,1.12,0,0,0-1.23-1.18H116.3v2.41Zm13.65-6.21c.34,0,.46.1.46.45v6.85c0,.34-.12.46-.46.46h-8.91c-.35,0-.45-.12-.45-.46V18.78c0-.34.1-.45.45-.45h.82c.35,0,.47.1.47.45v5.7h2.29v-5.7c0-.34.12-.45.46-.45h.82c.35,0,.45.1.45.45v5.7h2.31v-5.7c0-.34.12-.45.46-.45Zm1.93,3c0-2.1,1.21-3.24,3.48-3.24s3.46,1.29,3.46,3.1v.92c0,.43-.23.64-.67.64h-4.53v.56c0,1,.62,1.5,1.71,1.5a2,2,0,0,0,1.77-.79c.24-.35.41-.37.77-.18l.52.29c.35.17.41.4.18.75a3.48,3.48,0,0,1-3.24,1.44c-2.34,0-3.45-1.25-3.45-3.21Zm5.21-.24c0-1-.58-1.53-1.72-1.53s-1.74.56-1.74,1.53v.33h3.46Z"/><g id="ezapp_horizontal_nopadding"><path d="M221.71,24.3a2.27,2.27,0,0,0,.71-.12,2.44,2.44,0,0,0,.71-.37l.19-.11a.38.38,0,0,1,.35,0,.42.42,0,0,1,.15.14l.58.79a.44.44,0,0,1,.1.27.4.4,0,0,1-.08.23.87.87,0,0,1-.2.2,3.27,3.27,0,0,1-.54.34,4.45,4.45,0,0,1-.62.25,4.61,4.61,0,0,1-.66.16,4.16,4.16,0,0,1-.66.05,3.64,3.64,0,0,1-1.49-.31A3.9,3.9,0,0,1,219,25a4,4,0,0,1-.82-1.26,4,4,0,0,1-.3-1.56,4.12,4.12,0,0,1,.28-1.53,4,4,0,0,1,.79-1.26,3.75,3.75,0,0,1,1.19-.86,3.48,3.48,0,0,1,1.48-.32,3.51,3.51,0,0,1,1.41.28,3.76,3.76,0,0,1,1.16.78,3.64,3.64,0,0,1,1.08,2.61v0a1.43,1.43,0,0,1-.07.49.65.65,0,0,1-.21.3.87.87,0,0,1-.36.15,2.59,2.59,0,0,1-.5,0H220a1.79,1.79,0,0,0,.25.59,1.85,1.85,0,0,0,.41.44,1.83,1.83,0,0,0,.51.28A1.66,1.66,0,0,0,221.71,24.3Zm1.57-3a1.57,1.57,0,0,0-.2-.52,1.62,1.62,0,0,0-.37-.42,1.75,1.75,0,0,0-.49-.28,1.67,1.67,0,0,0-1.11,0,1.69,1.69,0,0,0-.48.26,1.62,1.62,0,0,0-.37.41,1.59,1.59,0,0,0-.22.55Z"/><path d="M226.28,26h-.08l-.1,0a.24.24,0,0,1-.09-.07.22.22,0,0,1,0-.14.2.2,0,0,1,0-.11l.07-.11,3.82-5.35h-3a.32.32,0,0,1-.37-.37V18.68q0-.34.37-.34H233l.1,0a.26.26,0,0,1,.09.07.2.2,0,0,1,0,.13.2.2,0,0,1,0,.11l-.07.11-3.79,5.36h3.51a.36.36,0,0,1,.25.09.34.34,0,0,1,.1.27v1.12a.38.38,0,0,1-.1.25.32.32,0,0,1-.25.11Z"/><path class="cls-5" d="M240.2,25.55q0-.15,0-.29l0-.29a4.89,4.89,0,0,1-.31.42,2.15,2.15,0,0,1-.41.37,2,2,0,0,1-.55.27,2.46,2.46,0,0,1-.75.1h0a3.75,3.75,0,0,1-1.53-.3,3.66,3.66,0,0,1-1.19-.84,3.74,3.74,0,0,1-.78-1.26,4.33,4.33,0,0,1-.28-1.56,4.38,4.38,0,0,1,.28-1.58,3.81,3.81,0,0,1,.77-1.26,3.57,3.57,0,0,1,1.19-.84,3.79,3.79,0,0,1,1.54-.3,2.56,2.56,0,0,1,.78.11,2.22,2.22,0,0,1,.61.29,2.24,2.24,0,0,1,.45.42,3.45,3.45,0,0,1,.33.48l.14-.76.06-.21a.32.32,0,0,1,.07-.13.26.26,0,0,1,.12-.07l.18,0h.84a.47.47,0,0,1,.31.11.39.39,0,0,1,.13.31v6.86a.34.34,0,0,1-.13.29.5.5,0,0,1-.31.1h-1a.36.36,0,0,1-.32-.12A.81.81,0,0,1,240.2,25.55Zm-3.88-3.37a2.39,2.39,0,0,0,.13.8,2,2,0,0,0,.38.65,1.78,1.78,0,0,0,.59.44,1.82,1.82,0,0,0,.77.16,1.89,1.89,0,0,0,.78-.16,1.74,1.74,0,0,0,.6-.43,1.9,1.9,0,0,0,.38-.65,2.41,2.41,0,0,0,.13-.81,2.47,2.47,0,0,0-.13-.8,2,2,0,0,0-.37-.66,1.88,1.88,0,0,0-2.16-.46,1.74,1.74,0,0,0-.59.45,2.08,2.08,0,0,0-.37.66A2.4,2.4,0,0,0,236.32,22.18Z"/><path class="cls-5" d="M244.1,18.74a.46.46,0,0,1,.11-.32.47.47,0,0,1,.32-.14h1a.6.6,0,0,1,.2,0,.43.43,0,0,1,.16.12.58.58,0,0,1,.11.23l.1.52a3.3,3.3,0,0,1,.87-.78,2.22,2.22,0,0,1,1.17-.29,3.39,3.39,0,0,1,1.44.31,3.6,3.6,0,0,1,1.16.85,4,4,0,0,1,.77,1.26,4.24,4.24,0,0,1,.28,1.54,4.34,4.34,0,0,1-.27,1.55,3.84,3.84,0,0,1-.77,1.26,3.6,3.6,0,0,1-1.17.84,3.5,3.5,0,0,1-1.47.31,2.45,2.45,0,0,1-1.06-.23,2.52,2.52,0,0,1-.43-.25,2.32,2.32,0,0,1-.34-.31v3.27a.46.46,0,0,1-.13.33.48.48,0,0,1-.36.13H244.6a.53.53,0,0,1-.36-.13.42.42,0,0,1-.15-.33Zm2,3.3a2.1,2.1,0,0,0,.14.77,2,2,0,0,0,.38.63,1.83,1.83,0,0,0,.56.43,1.54,1.54,0,0,0,.69.16,1.51,1.51,0,0,0,.68-.16,1.82,1.82,0,0,0,.55-.42,2,2,0,0,0,.37-.62,2.16,2.16,0,0,0,0-1.51,1.94,1.94,0,0,0-.37-.62,1.8,1.8,0,0,0-.55-.41,1.54,1.54,0,0,0-.68-.15,1.56,1.56,0,0,0-.68.15,1.87,1.87,0,0,0-.56.41,2,2,0,0,0-.39.61A1.92,1.92,0,0,0,246.06,22Z"/><path class="cls-5" d="M253.32,18.74a.46.46,0,0,1,.11-.32.47.47,0,0,1,.32-.14h1a.6.6,0,0,1,.2,0,.43.43,0,0,1,.16.12.58.58,0,0,1,.11.23l.1.52a3.3,3.3,0,0,1,.87-.78,2.22,2.22,0,0,1,1.17-.29,3.39,3.39,0,0,1,1.44.31,3.6,3.6,0,0,1,1.16.85,4,4,0,0,1,.77,1.26,4.24,4.24,0,0,1,.28,1.54,4.34,4.34,0,0,1-.27,1.55,3.84,3.84,0,0,1-.77,1.26,3.6,3.6,0,0,1-1.17.84,3.5,3.5,0,0,1-1.47.31,2.45,2.45,0,0,1-1.06-.23,2.52,2.52,0,0,1-.43-.25,2.32,2.32,0,0,1-.34-.31v3.27a.46.46,0,0,1-.13.33A.48.48,0,0,1,255,29h-1.18a.53.53,0,0,1-.36-.13.42.42,0,0,1-.15-.33Zm2,3.3a2.1,2.1,0,0,0,.14.77,2,2,0,0,0,.38.63,1.83,1.83,0,0,0,.56.43,1.54,1.54,0,0,0,.69.16,1.51,1.51,0,0,0,.68-.16,1.82,1.82,0,0,0,.55-.42,2,2,0,0,0,.37-.62,2.16,2.16,0,0,0,0-1.51,1.94,1.94,0,0,0-.37-.62,1.8,1.8,0,0,0-.55-.41,1.54,1.54,0,0,0-.68-.15,1.56,1.56,0,0,0-.68.15,1.87,1.87,0,0,0-.56.41,2,2,0,0,0-.39.61A1.92,1.92,0,0,0,255.28,22Z"/><path class="cls-6" d="M209.91,32H200a2,2,0,1,1,0-4h10a2,2,0,1,1,0,4Zm2-10a2,2,0,0,0-2-2h-6a2,2,0,1,0,0,4h6A2,2,0,0,0,211.9,22Zm0-8a2,2,0,0,0-2-2h-2a2,2,0,0,0,0,4h2A2,2,0,0,0,211.9,14.08ZM196,30a2,2,0,0,0-2-2h-2a2,2,0,1,0,0,4h2A2,2,0,0,0,196,30Zm4-8a2,2,0,0,0-2-2h-6a2,2,0,1,0,0,4h6A2,2,0,0,0,200,22Zm4-8a2,2,0,0,0-2-2H192a2,2,0,1,0,0,4h10A2,2,0,0,0,203.94,14.08Z"/></g></svg>