<svg id="Слой_1" data-name="Слой 1" xmlns="http://www.w3.org/2000/svg" viewBox="0 0 125.84 97.31"><defs><style>.cls-1{fill:#ffca28;}.cls-2{fill:#ff8a65;}</style></defs><title>banner_lines</title><path class="cls-1" d="M125.13,45.7a.71.71,0,0,1-.5-.21L88.77,9.64a4.06,4.06,0,0,0-2.85-1.18H27.39a.71.71,0,1,1,0-1.42H85.92a5.42,5.42,0,0,1,3.86,1.6l35.85,35.85a.71.71,0,0,1-.5,1.21Z"/><path class="cls-1" d="M7.83,80.18A.71.71,0,0,1,7.33,79L39.15,47.14A5.42,5.42,0,0,1,43,45.55h69.37a.71.71,0,1,1,0,1.42H43a4,4,0,0,0-2.85,1.18L8.33,80A.71.71,0,0,1,7.83,80.18Z"/><path class="cls-1" d="M105,90.19H57.17a.71.71,0,1,1,0-1.42H105a4,4,0,0,0,2.85-1.18l5.73-5.73a.71.71,0,1,1,1,1l-5.73,5.73A5.42,5.42,0,0,1,105,90.19Z"/><circle class="cls-2" cx="57.41" cy="89.25" r="8.07"/><circle class="cls-2" cx="27.04" cy="8.07" r="8.07"/><circle class="cls-2" cx="8.07" cy="79.23" r="8.07"/></svg>