<svg id="Слой_1" data-name="Слой 1" xmlns="http://www.w3.org/2000/svg" viewBox="0 0 260.34 33.19"><title>banner_text</title><path d="M9.53,13.49H8c-.76,0-1-.16-1.09-.61l-.34-1H3.38l-.34,1c-.15.45-.33.61-1.06.61H.46c-.45,0-.54-.2-.39-.6L3.41,3.66c.15-.42.34-.51.76-.51H5.83c.42,0,.61.1.76.48L10,12.89C10.1,13.29,10,13.49,9.53,13.49ZM5,5.8H4.87a7.71,7.71,0,0,1-.28,2L4.05,9.54H5.87l-.54-1.7A9.18,9.18,0,0,1,5,5.8Z"/><path d="M18.85,5.9A2.33,2.33,0,0,1,17.8,8V8.1a2.49,2.49,0,0,1,1.47,2.5c0,1.88-1.53,2.88-3.58,2.88H11.36c-.47,0-.63-.16-.63-.61V3.76c0-.47.16-.63.63-.63h4.27C17.64,3.14,18.85,4.13,18.85,5.9ZM15,5.48H13.62v1.6H15c.58,0,.89-.22.89-.79S15.62,5.48,15,5.48Zm.28,3.95H13.62v1.7h1.69c.63,0,.93-.25.93-.86S15.94,9.43,15.31,9.43Z"/><path d="M28.13,3.76V5.07c0,.47-.16.63-.63.63H25.34v7.18c0,.45-.16.61-.63.61H23.07c-.47,0-.61-.16-.61-.61V5.7H20.29c-.47,0-.61-.16-.61-.63V3.76c0-.45.15-.61.61-.61H27.5C28,3.15,28.13,3.31,28.13,3.76Z"/><path d="M33.12,2.93C36,2.93,37.59,4.49,37.59,7V9.63c0,2.52-1.6,4.08-4.47,4.08s-4.49-1.56-4.49-4.08V7C28.64,4.49,30.24,2.93,33.12,2.93Zm0,2.55c-1,0-1.6.48-1.6,1.4V9.76c0,.92.58,1.4,1.6,1.4s1.59-.48,1.59-1.4V6.88C34.71,6,34.12,5.48,33.12,5.48Z"/><path d="M49.37,3.75v9.14c0,.45-.16.6-.63.6H47.16c-.47,0-.61-.15-.61-.6V10.81A12.52,12.52,0,0,1,47.19,7H47a21.55,21.55,0,0,1-1,2.4L45.23,11a.67.67,0,0,1-.7.42h-1a.64.64,0,0,1-.7-.42L42,9.4A16.31,16.31,0,0,1,41.1,7H41a13.67,13.67,0,0,1,.6,3.83v2.07c0,.45-.16.6-.63.6H39.44c-.47,0-.63-.15-.63-.6V3.75c0-.47.16-.61.63-.61h1.37c.51,0,.66.09.86.45l2.4,4.72,2.4-4.7c.2-.39.33-.47.82-.47h1.46C49.21,3.14,49.37,3.28,49.37,3.75Z"/><path d="M59.64,13.49H58.06c-.76,0-1-.16-1.09-.61l-.34-1H53.49l-.34,1c-.15.45-.33.61-1.06.61H50.56c-.45,0-.54-.2-.39-.6l3.35-9.23c.15-.42.34-.51.76-.51h1.66c.42,0,.61.1.76.48l3.36,9.26C60.2,13.29,60.07,13.49,59.64,13.49ZM55.12,5.8H55a7.71,7.71,0,0,1-.28,2l-.54,1.72H56l-.54-1.7A9.18,9.18,0,0,1,55.12,5.8Z"/><path d="M68.68,3.76V5.07c0,.47-.16.63-.63.63H65.9v7.18c0,.45-.16.61-.63.61H63.63c-.47,0-.61-.16-.61-.61V5.7H60.84c-.47,0-.61-.16-.61-.63V3.76c0-.45.15-.61.61-.61h7.21C68.52,3.15,68.68,3.31,68.68,3.76Z"/><path d="M78.38,3.76v9.12c0,.45-.16.61-.63.61H76.12c-.47,0-.63-.16-.63-.63V10.39A11.32,11.32,0,0,1,76,6.78h-.12a13.82,13.82,0,0,1-1.37,3l-2,3.42c-.12.22-.28.29-.6.29H70.19c-.47,0-.63-.16-.63-.61V3.76c0-.45.16-.61.63-.61h1.65c.47,0,.61.16.61.61V6.25a9.53,9.53,0,0,1-.54,3.6H72a17.55,17.55,0,0,1,1.4-3l2-3.39A.61.61,0,0,1,76,3.14h1.75C78.22,3.14,78.38,3.3,78.38,3.76Z"/><path d="M86.71,8.07a2.39,2.39,0,0,1,1.48,2.48c0,2-1.3,3.16-4.12,3.16-2.53,0-4-.92-4.66-2.55-.15-.42,0-.64.39-.79l1.43-.51c.44-.16.63-.06.79.39.25.63.83.95,1.82.95s1.32-.28,1.32-.86-.28-.86-.9-.86H82.88c-.47,0-.63-.16-.63-.61V7.67c0-.47.16-.63.63-.63H84c.6,0,.89-.22.89-.8s-.38-.8-1.14-.8c-.95,0-1.47.29-1.72.95-.17.45-.35.54-.79.39l-1.44-.51c-.42-.15-.54-.36-.38-.79.6-1.63,2.07-2.55,4.6-2.55s3.79,1,3.79,3A2.15,2.15,0,0,1,86.71,8.07Z"/><path d="M98.09,3.76v9.12c0,.45-.16.61-.63.61H95.84c-.47,0-.63-.16-.63-.63V10.39a11.32,11.32,0,0,1,.55-3.61h-.12a13.82,13.82,0,0,1-1.37,3l-2,3.42c-.12.22-.28.29-.6.29H89.91c-.47,0-.63-.16-.63-.61V3.76c0-.45.16-.61.63-.61h1.65c.47,0,.61.16.61.61V6.25a9.53,9.53,0,0,1-.54,3.6h.1a17.55,17.55,0,0,1,1.4-3l2-3.39a.61.61,0,0,1,.61-.29h1.75C97.93,3.14,98.09,3.3,98.09,3.76Z"/><path d="M108,6.79a3.38,3.38,0,0,1-3.73,3.6h-1.79v2.49c0,.45-.15.61-.61.61h-1.65c-.47,0-.63-.16-.63-.61V3.76c0-.45.16-.61.63-.61h4A3.42,3.42,0,0,1,108,6.79Zm-3,0a1,1,0,0,0-1.09-1.08h-1.44V7.84h1.44A1,1,0,0,0,105,6.78Z"/><path d="M117.27,3.76,113.43,13c-.19.45-.36.54-1,.54h-1.85c-.42,0-.48-.23-.31-.61l1.09-2.45-3.09-6.67c-.19-.41-.1-.61.35-.61h1.72c.68,0,.92,0,1.12.54l1.41,3.23,1.34-3.23c.19-.49.36-.54,1-.54H117C117.39,3.15,117.44,3.36,117.27,3.76Z"/><path d="M126.92,3.76v9.12c0,.45-.16.61-.63.61h-1.63c-.47,0-.63-.16-.63-.63V10.39a11.32,11.32,0,0,1,.55-3.61h-.12a13.82,13.82,0,0,1-1.37,3l-2,3.42c-.12.22-.28.29-.6.29h-1.76c-.47,0-.63-.16-.63-.61V3.76c0-.45.16-.61.63-.61h1.65c.47,0,.61.16.61.61V6.25a9.53,9.53,0,0,1-.54,3.6h.1a17.55,17.55,0,0,1,1.4-3l2-3.39a.61.61,0,0,1,.61-.29h1.75C126.76,3.14,126.92,3.3,126.92,3.76Zm-4.34-1.15A2.87,2.87,0,0,1,119.67,1c-.12-.29,0-.41.29-.54l1.09-.38c.35-.12.47-.07.63.19a1,1,0,0,0,.9.49,1,1,0,0,0,.9-.49c.17-.26.25-.31.58-.2l1.17.39c.32.12.41.25.29.54A2.89,2.89,0,0,1,122.58,2.61Z"/><path d="M136.27,3.76V5.07c0,.47-.16.63-.63.63h-2.15v7.18c0,.45-.16.61-.63.61h-1.65c-.47,0-.61-.16-.61-.61V5.7h-2.17c-.47,0-.61-.16-.61-.63V3.76c0-.45.15-.61.61-.61h7.21C136.11,3.15,136.27,3.31,136.27,3.76Z"/><path d="M144.51,3.76V5.07c0,.47-.16.63-.63.63H140V7h3.07c.47,0,.63.16.63.61V8.92c0,.47-.16.63-.63.63H140v1.4h4c.45,0,.61.15.61.61v1.33c0,.45-.16.61-.61.61h-6.23c-.47,0-.63-.16-.63-.61V3.76c0-.45.16-.61.63-.61h6.1C144.35,3.15,144.51,3.31,144.51,3.76Z"/><path d="M157.56,3.76v7.18h.7c.47,0,.61.15.61.6v3.57c0,.45-.15.61-.61.61h-1.6c-.47,0-.63-.16-.63-.61V13.49H150.7v1.62c0,.45-.16.61-.61.61h-1.62c-.45,0-.61-.16-.61-.61V11.54c0-.45.16-.6.61-.6h.32c.74-.63,1.17-1.54,1.17-3.86V3.76c0-.45.16-.61.63-.61h6.35C157.4,3.15,157.56,3.31,157.56,3.76Zm-5.46,7.18h2.58V5.7h-1.89V7.07A9,9,0,0,1,152.1,10.94Z"/><path d="M168.64,3.76v9.12c0,.45-.16.61-.63.61h-1.63c-.47,0-.63-.16-.63-.63V10.39a11.32,11.32,0,0,1,.55-3.61h-.12a13.82,13.82,0,0,1-1.37,3l-2,3.42c-.12.22-.28.29-.6.29h-1.76c-.47,0-.63-.16-.63-.61V3.76c0-.45.16-.61.63-.61h1.65c.47,0,.61.16.61.61V6.25a9.53,9.53,0,0,1-.54,3.6h.1a17.55,17.55,0,0,1,1.4-3l2-3.39a.61.61,0,0,1,.61-.29H168C168.48,3.14,168.64,3.3,168.64,3.76Z"/><path d="M174.34,2.93c2.24,0,3.64.92,4.25,2.55.15.42,0,.64-.39.79l-1.56.55c-.45.13-.63.06-.79-.39a1.41,1.41,0,0,0-1.51-.95c-1.15,0-1.6.49-1.6,1.51V9.65c0,1,.45,1.51,1.6,1.51a1.42,1.42,0,0,0,1.51-.95c.17-.45.35-.55.79-.39l1.56.55c.44.15.54.36.39.79-.61,1.63-2,2.55-4.25,2.55-2.87,0-4.49-1.56-4.49-4.08V7C169.85,4.49,171.47,2.93,174.34,2.93Z"/><path d="M187.47,3.76V5.07c0,.47-.16.63-.63.63h-2.15v7.18c0,.45-.16.61-.63.61h-1.65c-.47,0-.61-.16-.61-.61V5.7h-2.17c-.47,0-.61-.16-.61-.63V3.76c0-.45.15-.61.61-.61h7.21C187.31,3.15,187.47,3.31,187.47,3.76Z"/><path d="M196.76,6.79a3.38,3.38,0,0,1-3.73,3.6h-1.79v2.49c0,.45-.15.61-.61.61H189c-.47,0-.63-.16-.63-.61V3.76c0-.45.16-.61.63-.61h4A3.42,3.42,0,0,1,196.76,6.79Zm-3,0a1,1,0,0,0-1.09-1.08h-1.44V7.84h1.44A1,1,0,0,0,193.78,6.78Z"/><path d="M206.59,3.76v9.12c0,.45-.16.61-.63.61h-1.63c-.47,0-.63-.16-.63-.63V10.39a11.32,11.32,0,0,1,.55-3.61h-.12a13.82,13.82,0,0,1-1.37,3l-2,3.42c-.12.22-.28.29-.6.29h-1.76c-.47,0-.63-.16-.63-.61V3.76c0-.45.16-.61.63-.61h1.65c.47,0,.61.16.61.61V6.25a9.53,9.53,0,0,1-.54,3.6h.1a17.55,17.55,0,0,1,1.4-3l2-3.39a.61.61,0,0,1,.61-.29H206C206.43,3.14,206.59,3.3,206.59,3.76Z"/><path d="M215.71,3.76V4.9c0,.47-.16.61-.61.61h-4.16v1.3H213a3.14,3.14,0,0,1,3.39,3.35A3.14,3.14,0,0,1,213,13.49h-4.35c-.44,0-.61-.15-.61-.58V3.76c0-.47.16-.63.63-.63h6.42C215.55,3.14,215.71,3.3,215.71,3.76ZM212.4,9.18h-1.47v1.94h1.47c.68,0,1.06-.34,1.06-1S213.09,9.18,212.4,9.18Z"/><path d="M225.68,3.76,221.84,13c-.19.45-.36.54-1,.54H219c-.42,0-.48-.23-.31-.61l1.09-2.45-3.09-6.67c-.19-.41-.1-.61.35-.61h1.72c.68,0,.92,0,1.12.54l1.41,3.23,1.34-3.23c.19-.49.36-.54,1-.54h1.73C225.8,3.15,225.86,3.36,225.68,3.76Z"/><path d="M236.22,11.54v3.57c0,.47-.16.63-.63.63h-1.5c-.47,0-.61-.16-.61-.63V13.49h-6.33c-.47,0-.63-.16-.63-.61V3.76c0-.45.16-.61.63-.61h1.65c.47,0,.61.16.61.61v7.18h2.71V3.76c0-.45.16-.61.63-.61h1.65c.47,0,.61.16.61.61v7.18h.6C236.06,10.94,236.22,11.09,236.22,11.54Z"/><path d="M246,3.76v9.12c0,.45-.16.61-.63.61h-1.63c-.47,0-.63-.16-.63-.63V10.39a11.32,11.32,0,0,1,.55-3.61h-.12a13.82,13.82,0,0,1-1.37,3l-2,3.42c-.12.22-.28.29-.6.29h-1.76c-.47,0-.63-.16-.63-.61V3.76c0-.45.16-.61.63-.61h1.65c.47,0,.61.16.61.61V6.25a9.53,9.53,0,0,1-.54,3.6h.1a17.55,17.55,0,0,1,1.4-3l2-3.39a.61.61,0,0,1,.61-.29h1.75C245.83,3.14,246,3.3,246,3.76Z"/><path d="M256,2.93c2.83,0,4.37,1.56,4.37,4.08V9.63c0,2.52-1.54,4.08-4.37,4.08s-4.34-1.49-4.34-3.86V9.53h-1.3v3.35c0,.45-.15.61-.61.61h-1.65c-.47,0-.63-.16-.63-.61V3.76c0-.45.16-.61.63-.61h1.65c.47,0,.61.16.61.61V7h1.31V6.69C251.64,4.35,253.28,2.93,256,2.93Zm0,2.55a1.28,1.28,0,0,0-1.46,1.38V9.78A1.28,1.28,0,0,0,256,11.16c1,0,1.49-.48,1.49-1.38V6.87C257.45,6,256.93,5.48,256,5.48Z"/><path d="M68.78,21.24v1.31c0,.47-.16.63-.63.63H66v7.18c0,.45-.16.61-.63.61H63.73c-.47,0-.61-.16-.61-.61V23.17H60.95c-.47,0-.61-.16-.61-.63V21.24c0-.45.15-.61.61-.61h7.21C68.62,20.63,68.78,20.79,68.78,21.24Z"/><path d="M73.78,20.41c2.87,0,4.47,1.56,4.47,4.08v2.62c0,2.52-1.6,4.08-4.47,4.08s-4.49-1.56-4.49-4.08V24.48C69.29,22,70.89,20.41,73.78,20.41Zm0,2.55c-1,0-1.6.48-1.6,1.4v2.88c0,.92.58,1.4,1.6,1.4s1.59-.48,1.59-1.4V24.35C75.36,23.44,74.78,23,73.78,23Z"/><path d="M87.58,23.38a2.33,2.33,0,0,1-1,2.14v.06A2.49,2.49,0,0,1,88,28.08C88,30,86.47,31,84.42,31H80.09c-.47,0-.63-.16-.63-.61V21.24c0-.47.16-.63.63-.63h4.27C86.37,20.61,87.58,21.6,87.58,23.38ZM83.76,23H82.35v1.6h1.41c.58,0,.89-.22.89-.79S84.35,23,83.76,23ZM84,26.9H82.35v1.7H84c.63,0,.93-.25.93-.86S84.67,26.9,84,26.9Z"/><path d="M97.86,31H96.29c-.76,0-1-.16-1.09-.61l-.34-1H91.71l-.34,1c-.15.45-.33.61-1.06.61H88.79c-.45,0-.54-.2-.39-.6l3.35-9.23c.15-.42.34-.51.76-.51h1.66c.42,0,.61.1.76.48l3.36,9.26C98.43,30.76,98.3,31,97.86,31Zm-4.51-7.69H93.2a7.71,7.71,0,0,1-.28,2L92.38,27H94.2l-.54-1.7A9.18,9.18,0,0,1,93.35,23.28Z"/><path d="M107.47,24.27a3.38,3.38,0,0,1-3.73,3.6H102v2.49c0,.45-.15.61-.61.61H99.69c-.47,0-.63-.16-.63-.61V21.24c0-.45.16-.61.63-.61h4A3.42,3.42,0,0,1,107.47,24.27Zm-3,0a1,1,0,0,0-1.09-1.08H102v2.14h1.44A1,1,0,0,0,104.48,24.25Z"/><path d="M112.73,20.41c2.87,0,4.47,1.56,4.47,4.08v2.62c0,2.52-1.6,4.08-4.47,4.08s-4.49-1.56-4.49-4.08V24.48C108.24,22,109.84,20.41,112.73,20.41Zm0,2.55c-1,0-1.6.48-1.6,1.4v2.88c0,.92.58,1.4,1.6,1.4s1.59-.48,1.59-1.4V24.35C114.31,23.44,113.73,23,112.73,23Z"/><path d="M126.53,23.38a2.33,2.33,0,0,1-1,2.14v.06a2.49,2.49,0,0,1,1.47,2.5C127,30,125.42,31,123.37,31H119c-.47,0-.63-.16-.63-.61V21.24c0-.47.16-.63.63-.63h4.27C125.32,20.61,126.53,21.6,126.53,23.38ZM122.71,23H121.3v1.6h1.41c.58,0,.89-.22.89-.79S123.3,23,122.71,23ZM123,26.9H121.3v1.7H123c.63,0,.93-.25.93-.86S123.62,26.9,123,26.9Z"/><path d="M137.5,25.55A2.39,2.39,0,0,1,139,28c0,2-1.3,3.16-4.12,3.16-2.53,0-4-.92-4.66-2.55-.15-.42,0-.64.39-.79l1.43-.51c.44-.16.63-.06.79.39.25.63.83.95,1.82.95s1.32-.28,1.32-.86-.28-.86-.9-.86h-1.38c-.47,0-.63-.16-.63-.61V25.14c0-.47.16-.63.63-.63h1.15c.6,0,.89-.22.89-.8s-.38-.8-1.14-.8c-.95,0-1.47.29-1.72.95-.17.45-.35.54-.79.39l-1.44-.51c-.42-.15-.54-.36-.38-.79.6-1.63,2.07-2.55,4.6-2.55s3.79,1,3.79,3A2.15,2.15,0,0,1,137.5,25.55Z"/><path d="M148.88,31h-1.57c-.76,0-1-.16-1.09-.61l-.34-1h-3.14l-.34,1c-.15.45-.33.61-1.06.61h-1.53c-.45,0-.54-.2-.39-.6l3.35-9.23c.15-.42.34-.51.76-.51h1.66c.42,0,.61.1.76.48l3.36,9.26C149.45,30.76,149.32,31,148.88,31Zm-4.51-7.69h-.15a7.71,7.71,0,0,1-.28,2L143.41,27h1.82l-.54-1.7A9.18,9.18,0,0,1,144.37,23.28Z"/><path d="M157.63,21.24v9.12c0,.45-.15.61-.61.61h-1.64c-.47,0-.63-.16-.63-.61V24.28l-1,.55c-.48.26-.73.16-.95-.25l-.68-1.24c-.22-.41-.1-.6.29-.84l2.84-1.63a1.36,1.36,0,0,1,.87-.25H157C157.49,20.63,157.63,20.79,157.63,21.24Z"/><path d="M171.09,21.24v7.18h.7c.47,0,.61.15.61.6v3.57c0,.45-.15.61-.61.61h-1.6c-.47,0-.63-.16-.63-.61V31h-5.33v1.62c0,.45-.16.61-.61.61H162c-.45,0-.61-.16-.61-.61V29c0-.45.16-.6.61-.6h.32c.74-.63,1.17-1.54,1.17-3.86V21.24c0-.45.16-.61.63-.61h6.35C170.93,20.63,171.09,20.79,171.09,21.24Zm-5.46,7.18h2.58V23.17h-1.89v1.37A9,9,0,0,1,165.63,28.42Z"/><path d="M180.71,21.24v1.31c0,.47-.16.63-.63.63h-3.84v1.3h3.07c.47,0,.63.16.63.61v1.31c0,.47-.16.63-.63.63h-3.07v1.4h4c.45,0,.61.15.61.61v1.33c0,.45-.16.61-.61.61H174c-.47,0-.63-.16-.63-.61V21.24c0-.45.16-.61.63-.61h6.1C180.55,20.63,180.71,20.79,180.71,21.24Z"/><path d="M190.51,21.24v9.12c0,.45-.16.61-.61.61h-1.66c-.45,0-.61-.16-.61-.61V27H184.8v3.35c0,.45-.15.61-.61.61h-1.65c-.47,0-.63-.16-.63-.61V21.24c0-.47.16-.63.63-.63h1.65c.47,0,.61.16.61.63v3.22h2.83V21.24c0-.47.16-.63.61-.63h1.66C190.35,20.61,190.51,20.77,190.51,21.24Z"/><path d="M192,30.35V21.24c0-.45.16-.61.63-.61h1.65c.47,0,.61.16.61.61v2.49h1.79a3.38,3.38,0,0,1,3.73,3.6A3.42,3.42,0,0,1,196.61,31h-4C192.13,31,192,30.8,192,30.35Zm5.42-3a1,1,0,0,0-1.09-1.06h-1.44v2.14h1.44A1,1,0,0,0,197.39,27.34Z"/></svg>