<svg id="Слой_1" data-name="Слой 1" xmlns="http://www.w3.org/2000/svg" viewBox="0 0 137.59 128.1"><defs><style>.cls-1{fill:#f5fcfc;}.cls-2{fill:#e4ecf2;}.cls-3{fill:#ebf1f6;}.cls-4{fill:#f5f5f5;}.cls-5{fill:#cfd8dc;}</style></defs><title>banner_map</title><rect class="cls-1" x="2.37" y="2.37" width="132.84" height="123.35" rx="4.74" ry="4.74"/><rect class="cls-2" x="99.37" y="15.73" width="10.07" height="30.27" transform="translate(8.75 82.87) rotate(-45)"/><path class="cls-3" d="M135.75,40.33,102.27,73.81l32.94,32.94v19L92.78,83.3,78.67,97.41,64.52,111.56l-1.85,1.85L48.52,127.56H29.13L43.3,113.38l1.82-1.82H2.43L16.61,97.38H59.3L83.08,73.6,61.68,52.2,2.37,111.5v-19L52.19,42.71,11.86,2.38h19L61.68,33.22,92.52,2.38h19L97.26,16.61l-7.11,7.12-19,19,21.4,21.4,19-19,24.2-24.2Z"/><polygon class="cls-3" points="78.73 97.41 64.58 111.56 64.52 111.56 78.67 97.41 78.73 97.41"/><path class="cls-4" d="M56.91,94.89l-29.54.19a2.37,2.37,0,0,1-1.69-4L49.09,67.62a2.37,2.37,0,0,1,3.35,0L67.12,82.3a2.37,2.37,0,0,1,0,3.35L58.57,94.2A2.37,2.37,0,0,1,56.91,94.89Z"/><path class="cls-4" d="M99.62,113.57l-13.5-13.5a4.71,4.71,0,0,0-6.66,0L55.74,123.77l34.4-.24C92,121.7,101.45,115.4,99.62,113.57Z"/><path class="cls-4" d="M121.92,90.61l-13.5-13.5a4.71,4.71,0,0,1,0-6.66l23.71-23.71-.24,34.4C130.05,83,123.76,92.45,121.92,90.61Z"/><path class="cls-4" d="M113.37,107.32l6.59,6.59a2.72,2.72,0,0,1,0,3.85l-6.14,6.14-8.51-8.51a2.72,2.72,0,0,1,0-3.85l4.21-4.21A2.72,2.72,0,0,1,113.37,107.32Z"/><path class="cls-4" d="M100.37,36.32,107,42.91a2.72,2.72,0,0,1,0,3.85l-6.14,6.14-8.51-8.51a2.72,2.72,0,0,1,0-3.85l4.21-4.21A2.72,2.72,0,0,1,100.37,36.32Z"/><path class="cls-4" d="M19,66.41,5.46,52.91a4.71,4.71,0,0,1,0-6.66L24.67,27,41.5,43.88a4.71,4.71,0,0,1,0,6.66L25.63,66.41A4.71,4.71,0,0,1,19,66.41Z"/><rect class="cls-5" x="81.43" y="34.98" width="10.74" height="26.76" rx="2.37" ry="2.37" transform="translate(-8.78 75.54) rotate(-45)"/><path class="cls-5" d="M130.47,2.37a4.74,4.74,0,0,1,4.74,4.74V121a4.74,4.74,0,0,1-4.74,4.74H7.12A4.74,4.74,0,0,1,2.37,121V7.12A4.74,4.74,0,0,1,7.12,2.37Zm0-2.37H7.12A7.12,7.12,0,0,0,0,7.12V121a7.12,7.12,0,0,0,7.12,7.12H130.47a7.12,7.12,0,0,0,7.12-7.12V7.12A7.12,7.12,0,0,0,130.47,0Z"/><path class="cls-5" d="M14.88,74.18,9.74,69a2.37,2.37,0,0,1,0-3.35l12.5-12.5L29.06,60a2.37,2.37,0,0,1,0,3.35L18.23,74.18A2.37,2.37,0,0,1,14.88,74.18Z"/><path class="cls-5" d="M35.53,56.88,9.25,30.6,23.43,16.42,46.36,39.34a4.74,4.74,0,0,1,0,6.71Z"/><path class="cls-5" d="M49.6,67.12l1.17-1.17a2.37,2.37,0,0,1,3.35,0l7.37,7.37,9-9,7.37,7.37a2.37,2.37,0,0,1,0,3.35L66,86.89,49.6,70.47A2.37,2.37,0,0,1,49.6,67.12Z"/><circle class="cls-5" cx="90.14" cy="32.26" r="3.32"/></svg>